# xmcd
#
# Track frame offsets: 
#        150
#        25425
#        54825
#        73425
#        102675
#        120750
#        143850
#        169575
#        188175
#
# Disc length: 2862 seconds
#
# Revision: 0
# Processed by: cddbd v1.5.2PL0 Copyright (c) Steve Scherf et al.
# Submitted via: ExactAudioCopy v1.0b1
#
DISCID=7e0b2c09
DTITLE=Pribojszki Mátyás Band - Boogie On The Ship
DYEAR=2010
DGENRE=Blues
TTITLE0=She Wants To Sell My Monkey
TTITLE1=Walking Blues
TTITLE2=Marie, Marie
TTITLE3=Ain't Nobody's Business
TTITLE4=Aw Shucks, Hush Your Mouth
TTITLE5=Good Time Charlie
TTITLE6=I've Had My Fun
TTITLE7=Boogie On The Ship
TTITLE8=Switchin' In The Kitchen
EXTD=
EXTT0=
EXTT1=
EXTT2=
EXTT3=
EXTT4=
EXTT5=
EXTT6=
EXTT7=
EXTT8=
PLAYORDER=
